# xmcd
#
# Track frame offsets:
#	150
#	10700
#	34923
#	48190
#	61160
#	74580
#	80920
#	92966
#	103591
#	113829
#	131946
#	147384
#	166997
#	179098
#	190852
#	194573
#
# Disc length: 2899 seconds
#
# Revision: 0
# Processed by: cddbd v1.5.1PL0 Copyright (c) Steve Scherf et al.
# Submitted via: dBpowerAMP V4.0
#
DISCID=f00b5110
DTITLE=Various Artist - O Maryjo przyjm w ofierze
DYEAR=1900
DGENRE=Religious
TTITLE0=Serce Jezusa
TTITLE1=Jak paciorki rozanca
TTITLE2=Przyjdz duchu Swiety
TTITLE3=Panie przebacz nam
TTITLE4=Boze obdaz Kosciol Swoj
TTITLE5=Niescie chwale
TTITLE6=Laudate Dominium
TTITLE7=Codziennie szukam twarzy
TTITLE8=Serce me do ciebie wnosze
TTITLE9=O pieknosci
TTITLE10=O Maryjo przyjm w ofierze
TTITLE11=Boze cos Polske
TTITLE12=Jesli chcesz
TTITLE13=Ave, Ave
TTITLE14=Kyrie Eleison
TTITLE15=Cichy wieczorny moj spiew
EXTD=
EXTT0=
EXTT1=
EXTT2=
EXTT3=
EXTT4=
EXTT5=
EXTT6=
EXTT7=
EXTT8=
EXTT9=
EXTT10=
EXTT11=
EXTT12=
EXTT13=
EXTT14=
EXTT15=
PLAYORDER=
